<svg preserveAspectRatio="none" overflow="visible" style="display: block;" width="15" height="15" viewBox="0 0 15 15" fill="none" xmlns="http://www.w3.org/2000/svg">
<g id="Icon">
<path id="Vector" d="M5.625 7.5H9.375M5.625 10H9.375M10.625 13.125H4.375C4.04348 13.125 3.72554 12.9933 3.49112 12.7589C3.2567 12.5245 3.125 12.2065 3.125 11.875V3.125C3.125 2.79348 3.2567 2.47554 3.49112 2.24112C3.72554 2.0067 4.04348 1.875 4.375 1.875H7.86625C8.032 1.87504 8.19094 1.94091 8.30813 2.05812L11.6919 5.44187C11.8091 5.55906 11.875 5.718 11.875 5.88375V11.875C11.875 12.2065 11.7433 12.5245 11.5089 12.7589C11.2745 12.9933 10.9565 13.125 10.625 13.125Z" stroke="#6D3745" stroke-width="1.125" stroke-linecap="round" stroke-linejoin="round"/>
</g>
</svg>
